<?xml version="1.0" encoding="iso-8859-1"?>
<!-- Generator: Adobe Illustrator 16.0.0, SVG Export Plug-In . SVG Version: 6.00 Build 0)  -->
<!DOCTYPE svg PUBLIC "-//W3C//DTD SVG 1.1//EN" "http://www.w3.org/Graphics/SVG/1.1/DTD/svg11.dtd">
<svg xmlns="http://www.w3.org/2000/svg" xmlns:xlink="http://www.w3.org/1999/xlink" version="1.1" id="Layer_1" x="0px" y="0px" width="512" height="512" viewBox="0 0 369.412 369.412" style="enable-background:new 0 0 369.412 369.412;" xml:space="preserve">
<g>
	<path style="fill:#9B4C00;" d="M365.017,131.674l-42.414-42.416c-0.004-0.004-0.008-0.006-0.011-0.01l-21.213-21.213l-0.001-0.002   L280.166,46.82c-0.004-0.004-0.006-0.006-0.012-0.008L237.738,4.395C234.926,1.582,231.111,0,227.132,0   c-3.979,0.001-7.795,1.58-10.607,4.393l-42.426,42.429c-0.004,0.004-0.008,0.007-0.01,0.01l-38.883,38.882l10.607,10.605   l3.281,3.281l60.359,60.359l53.031,53.031l10.607,10.607l10.607,10.605l38.891-38.891l42.428-42.427   C370.876,147.028,370.875,137.529,365.017,131.674z"/>
	<path style="fill:#671F03;" d="M365.017,131.674l-42.414-42.416c-0.004-0.004-0.008-0.006-0.011-0.01l-21.213-21.213   l-91.925,91.924l53.031,53.031l10.607,10.607l10.607,10.605l38.891-38.891l42.428-42.427   C370.876,147.028,370.875,137.529,365.017,131.674z"/>
	<g>
		<polygon style="fill:#762204;" points="163.494,205.92 174.099,195.313 174.097,195.313 68.031,301.377 68.035,301.38     152.886,216.526   "/>
		<path style="fill:#9B4C00;" d="M227.132,290.771l10.605-10.605c5.857-5.858,5.859-15.355,0-21.213l-31.819-31.82h0.001    l-63.641-63.64v0.002l-31.822-31.822c-2.813-2.813-6.625-4.395-10.604-4.394s-7.795,1.58-10.605,4.394v0.003L78.64,142.28    L4.396,216.527c-5.861,5.857-5.859,15.355-0.002,21.212l31.818,31.819v0.001l63.641,63.64l0,0l31.82,31.819    c2.813,2.814,6.629,4.395,10.607,4.394c3.979,0,7.791-1.58,10.605-4.394L227.132,290.771z"/>
		<path style="fill:#671F03;" d="M237.738,280.166c5.857-5.858,5.859-15.355,0-21.213l-63.639-63.64l-10.605,10.606l-10.607,10.606    L68.035,301.38l63.639,63.639c2.813,2.814,6.629,4.395,10.607,4.394c3.979,0,7.791-1.58,10.605-4.394l74.246-74.247    L237.738,280.166L237.738,280.166z"/>
		<polygon style="fill:#AF2E08;" points="311.986,121.066 311.984,121.067 311.984,121.067   "/>
	</g>
	<polygon style="fill:#671F03;" points="227.132,78.641 237.738,68.035 248.343,57.429 227.132,36.213 205.919,57.429  "/>
	
		<rect x="296.983" y="127.281" transform="matrix(-0.7071 0.7071 -0.7071 -0.7071 633.1978 22.2834)" style="fill:#541604;" width="30.002" height="30.001"/>
	<polygon style="fill:#922806;" points="269.558,121.066 290.771,99.854 280.164,89.247 258.953,110.459 261.984,113.491  "/>
	<g>
		
			<rect x="166.172" y="83.389" transform="matrix(-0.7071 -0.7071 0.7071 -0.7071 236.1705 304.6043)" style="fill:#671F03;" width="29.998" height="40.001"/>
		<g>
			<polygon style="fill:#B55404;" points="258.953,110.459 261.984,113.491 269.558,121.066 290.771,99.854 280.164,89.247      269.558,78.642 269.556,78.64 248.347,99.854    "/>
			<polygon style="fill:#671F03;" points="258.953,110.459 261.984,113.491 269.558,121.066 290.771,99.854 280.164,89.247      269.558,78.642 269.556,78.64 248.347,99.854    "/>
			<polygon style="fill:#541604;" points="269.558,121.066 290.771,99.854 280.166,89.249 258.954,110.46 261.984,113.491    "/>
			<polygon style="fill:#671F03;" points="243.042,136.977 237.738,131.674 227.13,121.068 210.462,137.734 198.847,149.352      204.988,155.491 209.453,159.958 220.06,170.564 248.345,142.28 248.347,142.281    "/>
		</g>
		<polygon style="fill:#541604;" points="290.773,184.706 269.558,163.493 241.275,191.776 241.276,191.779 262.486,212.99     290.773,184.707   "/>
		<polygon style="fill:#541604;" points="248.347,142.281 243.042,136.977 237.738,131.674 209.453,159.958 220.06,170.564     248.345,142.28   "/>
	</g>
	<path style="fill:#E3E3E5;" d="M305.771,248.348c0-3.98-1.578-7.794-4.393-10.607l-10.607-10.607l-10.607-10.605l-10.607-10.607   l-21.209-21.212v-0.003L237.74,174.1l-10.607-10.606l-10.606-10.604l-0.001-0.002l-4.466-4.467l-6.14-6.14l-10.607-10.606   l-10.605-10.605l-31.822-31.82l-10.605-10.606l-10.607-10.608c-5.857-5.857-15.355-5.856-21.215,0l-42.426,42.426   c-5.855,5.859-5.855,15.355,0.004,21.215L78.64,142.28l74.246,74.247l74.246,74.244l10.605,10.608   c2.93,2.927,6.768,4.394,10.607,4.392c3.838,0.002,7.678-1.463,10.605-4.392l42.428-42.427   C304.191,256.14,305.773,252.324,305.771,248.348z"/>
	<path style="fill:#D6D5D8;" d="M305.771,248.348c0-3.98-1.578-7.794-4.393-10.607l-10.607-10.607l-10.607-10.605l-10.607-10.607   l-21.209-21.212v-0.003L237.74,174.1l-10.607-10.606l-10.606-10.604l-63.64,63.639l74.246,74.244l10.605,10.608   c2.93,2.927,6.768,4.394,10.607,4.392c3.838,0.002,7.678-1.463,10.605-4.392l42.428-42.427   C304.191,256.14,305.773,252.324,305.771,248.348z"/>
</g>















</svg>
